<svg width="24" height="24" viewBox="0 0 24 24" fill="none" xmlns="http://www.w3.org/2000/svg">
<path d="M7 22C5.61667 22 4.43733 21.5123 3.462 20.537C2.48667 19.5617 1.99933 18.3827 2 17C2 15.6167 2.48767 14.4373 3.463 13.462C4.43833 12.4867 5.61733 11.9993 7 12C8.38333 12 9.56267 12.4877 10.538 13.463C11.5133 14.4383 12.0007 15.6173 12 17C12 18.3833 11.5123 19.5627 10.537 20.538C9.56167 21.5133 8.38267 22.0007 7 22ZM20.6 21L14.2 14.6C14 14.3833 13.7877 14.1627 13.563 13.938C13.3383 13.7133 13.1173 13.5007 12.9 13.3C13.5333 12.9 14.0417 12.3667 14.425 11.7C14.8083 11.0333 15 10.3 15 9.5C15 8.25 14.5623 7.18733 13.687 6.312C12.8117 5.43667 11.7493 4.99933 10.5 5C9.25 5 8.18733 5.43767 7.312 6.313C6.43667 7.18833 5.99933 8.25067 6 9.5C6 9.6 6.00433 9.696 6.013 9.788C6.02167 9.88 6.034 9.97567 6.05 10.075C5.75 10.1083 5.421 10.175 5.063 10.275C4.705 10.375 4.384 10.4917 4.1 10.625C4.06667 10.4417 4.04167 10.2583 4.025 10.075C4.00833 9.89167 4 9.7 4 9.5C4 7.68333 4.62933 6.146 5.888 4.888C7.14667 3.63 8.684 3.00067 10.5 3C12.3167 3 13.854 3.62933 15.112 4.888C16.37 6.14667 16.9993 7.684 17 9.5C17 10.2167 16.8873 10.896 16.662 11.538C16.4367 12.18 16.1243 12.7673 15.725 13.3L22 19.6L20.6 21ZM5.225 19.475L7 17.7L8.75 19.475L9.475 18.775L7.7 17L9.475 15.225L8.775 14.525L7 16.3L5.225 14.525L4.525 15.225L6.3 17L4.525 18.775L5.225 19.475Z" fill="#FF0000"/>
</svg>
